<mxfile host="Electron" modified="2024-04-30T03:01:51.332Z" agent="Mozilla/5.0 (X11; Linux x86_64) AppleWebKit/537.36 (KHTML, like Gecko) draw.io/24.2.5 Chrome/120.0.6099.109 Electron/28.1.0 Safari/537.36" etag="Tj-hEc2O9MshvB-rh6o2" version="24.2.5" type="device">
  <diagram id="prtHgNgQTEPvFCAcTncT" name="Page-1">
    <mxGraphModel dx="683" dy="401" grid="1" gridSize="10" guides="1" tooltips="1" connect="1" arrows="1" fold="1" page="1" pageScale="1" pageWidth="827" pageHeight="1169" math="0" shadow="0">
      <root>
        <mxCell id="0" />
        <mxCell id="1" parent="0" />
        <mxCell id="RGoFzVvdjDVShJCez7t_-19" value="User" style="swimlane;startSize=20;horizontal=0;html=1;whiteSpace=wrap;" vertex="1" parent="1">
          <mxGeometry x="120" y="520" width="1400" height="120" as="geometry" />
        </mxCell>
        <mxCell id="RGoFzVvdjDVShJCez7t_-24" style="edgeStyle=orthogonalEdgeStyle;rounded=0;orthogonalLoop=1;jettySize=auto;html=1;" edge="1" parent="RGoFzVvdjDVShJCez7t_-19" source="RGoFzVvdjDVShJCez7t_-23">
          <mxGeometry relative="1" as="geometry">
            <mxPoint x="130" y="60.000000000000114" as="targetPoint" />
          </mxGeometry>
        </mxCell>
        <mxCell id="RGoFzVvdjDVShJCez7t_-23" value="" style="points=[[0.145,0.145,0],[0.5,0,0],[0.855,0.145,0],[1,0.5,0],[0.855,0.855,0],[0.5,1,0],[0.145,0.855,0],[0,0.5,0]];shape=mxgraph.bpmn.event;html=1;verticalLabelPosition=bottom;labelBackgroundColor=#ffffff;verticalAlign=top;align=center;perimeter=ellipsePerimeter;outlineConnect=0;aspect=fixed;outline=standard;symbol=general;" vertex="1" parent="RGoFzVvdjDVShJCez7t_-19">
          <mxGeometry x="40" y="40" width="40" height="40" as="geometry" />
        </mxCell>
        <mxCell id="RGoFzVvdjDVShJCez7t_-25" value="Seleccionar Origen,&lt;div&gt;[Destino], fecha&lt;/div&gt;" style="points=[[0.25,0,0],[0.5,0,0],[0.75,0,0],[1,0.25,0],[1,0.5,0],[1,0.75,0],[0.75,1,0],[0.5,1,0],[0.25,1,0],[0,0.75,0],[0,0.5,0],[0,0.25,0]];shape=mxgraph.bpmn.task;whiteSpace=wrap;rectStyle=rounded;size=10;html=1;container=1;expand=0;collapsible=0;taskMarker=abstract;" vertex="1" parent="RGoFzVvdjDVShJCez7t_-19">
          <mxGeometry x="130" y="30" width="110" height="60" as="geometry" />
        </mxCell>
        <mxCell id="RGoFzVvdjDVShJCez7t_-31" value="Recibir resultado" style="points=[[0.25,0,0],[0.5,0,0],[0.75,0,0],[1,0.25,0],[1,0.5,0],[1,0.75,0],[0.75,1,0],[0.5,1,0],[0.25,1,0],[0,0.75,0],[0,0.5,0],[0,0.25,0]];shape=mxgraph.bpmn.task;whiteSpace=wrap;rectStyle=rounded;size=10;html=1;container=1;expand=0;collapsible=0;taskMarker=abstract;" vertex="1" parent="RGoFzVvdjDVShJCez7t_-19">
          <mxGeometry x="280" y="34" width="110" height="60" as="geometry" />
        </mxCell>
        <mxCell id="RGoFzVvdjDVShJCez7t_-33" value="" style="points=[[0.25,0.25,0],[0.5,0,0],[0.75,0.25,0],[1,0.5,0],[0.75,0.75,0],[0.5,1,0],[0.25,0.75,0],[0,0.5,0]];shape=mxgraph.bpmn.gateway2;html=1;verticalLabelPosition=bottom;labelBackgroundColor=#ffffff;verticalAlign=top;align=center;perimeter=rhombusPerimeter;outlineConnect=0;outline=none;symbol=none;gwType=exclusive;" vertex="1" parent="RGoFzVvdjDVShJCez7t_-19">
          <mxGeometry x="440" y="48.5" width="30" height="31" as="geometry" />
        </mxCell>
        <mxCell id="RGoFzVvdjDVShJCez7t_-34" style="edgeStyle=orthogonalEdgeStyle;rounded=0;orthogonalLoop=1;jettySize=auto;html=1;entryX=0;entryY=0.5;entryDx=0;entryDy=0;entryPerimeter=0;" edge="1" parent="RGoFzVvdjDVShJCez7t_-19" source="RGoFzVvdjDVShJCez7t_-31" target="RGoFzVvdjDVShJCez7t_-33">
          <mxGeometry relative="1" as="geometry" />
        </mxCell>
        <mxCell id="RGoFzVvdjDVShJCez7t_-35" value="" style="points=[[0.145,0.145,0],[0.5,0,0],[0.855,0.145,0],[1,0.5,0],[0.855,0.855,0],[0.5,1,0],[0.145,0.855,0],[0,0.5,0]];shape=mxgraph.bpmn.event;html=1;verticalLabelPosition=bottom;labelBackgroundColor=#ffffff;verticalAlign=top;align=center;perimeter=ellipsePerimeter;outlineConnect=0;aspect=fixed;outline=end;symbol=terminate2;" vertex="1" parent="RGoFzVvdjDVShJCez7t_-19">
          <mxGeometry x="520" y="80" width="30" height="30" as="geometry" />
        </mxCell>
        <mxCell id="RGoFzVvdjDVShJCez7t_-36" style="edgeStyle=orthogonalEdgeStyle;rounded=0;orthogonalLoop=1;jettySize=auto;html=1;entryX=0;entryY=0.5;entryDx=0;entryDy=0;entryPerimeter=0;" edge="1" parent="RGoFzVvdjDVShJCez7t_-19" source="RGoFzVvdjDVShJCez7t_-33" target="RGoFzVvdjDVShJCez7t_-35">
          <mxGeometry relative="1" as="geometry">
            <Array as="points">
              <mxPoint x="455" y="95" />
            </Array>
          </mxGeometry>
        </mxCell>
        <mxCell id="RGoFzVvdjDVShJCez7t_-37" value="No hay viajes" style="text;html=1;align=center;verticalAlign=middle;resizable=0;points=[];autosize=1;strokeColor=none;fillColor=none;" vertex="1" parent="RGoFzVvdjDVShJCez7t_-19">
          <mxGeometry x="420" y="90" width="100" height="30" as="geometry" />
        </mxCell>
        <mxCell id="RGoFzVvdjDVShJCez7t_-38" value="Si hay" style="text;html=1;align=center;verticalAlign=middle;resizable=0;points=[];autosize=1;strokeColor=none;fillColor=none;" vertex="1" parent="RGoFzVvdjDVShJCez7t_-19">
          <mxGeometry x="460" y="40" width="60" height="30" as="geometry" />
        </mxCell>
        <mxCell id="RGoFzVvdjDVShJCez7t_-39" value="Seleccionar empresa y horario" style="points=[[0.25,0,0],[0.5,0,0],[0.75,0,0],[1,0.25,0],[1,0.5,0],[1,0.75,0],[0.75,1,0],[0.5,1,0],[0.25,1,0],[0,0.75,0],[0,0.5,0],[0,0.25,0]];shape=mxgraph.bpmn.task;whiteSpace=wrap;rectStyle=rounded;size=10;html=1;container=1;expand=0;collapsible=0;taskMarker=abstract;" vertex="1" parent="RGoFzVvdjDVShJCez7t_-19">
          <mxGeometry x="580" y="34" width="110" height="60" as="geometry" />
        </mxCell>
        <mxCell id="RGoFzVvdjDVShJCez7t_-40" style="edgeStyle=orthogonalEdgeStyle;rounded=0;orthogonalLoop=1;jettySize=auto;html=1;exitX=1;exitY=0.5;exitDx=0;exitDy=0;exitPerimeter=0;entryX=0;entryY=0.5;entryDx=0;entryDy=0;entryPerimeter=0;" edge="1" parent="RGoFzVvdjDVShJCez7t_-19" source="RGoFzVvdjDVShJCez7t_-33" target="RGoFzVvdjDVShJCez7t_-39">
          <mxGeometry relative="1" as="geometry" />
        </mxCell>
        <mxCell id="RGoFzVvdjDVShJCez7t_-41" value="Ingresar datos&lt;div&gt;del pasajero&lt;/div&gt;" style="points=[[0.25,0,0],[0.5,0,0],[0.75,0,0],[1,0.25,0],[1,0.5,0],[1,0.75,0],[0.75,1,0],[0.5,1,0],[0.25,1,0],[0,0.75,0],[0,0.5,0],[0,0.25,0]];shape=mxgraph.bpmn.task;whiteSpace=wrap;rectStyle=rounded;size=10;html=1;container=1;expand=0;collapsible=0;taskMarker=abstract;" vertex="1" parent="RGoFzVvdjDVShJCez7t_-19">
          <mxGeometry x="730" y="34" width="110" height="60" as="geometry" />
        </mxCell>
        <mxCell id="RGoFzVvdjDVShJCez7t_-42" style="edgeStyle=orthogonalEdgeStyle;rounded=0;orthogonalLoop=1;jettySize=auto;html=1;entryX=0;entryY=0.5;entryDx=0;entryDy=0;entryPerimeter=0;" edge="1" parent="RGoFzVvdjDVShJCez7t_-19" source="RGoFzVvdjDVShJCez7t_-39" target="RGoFzVvdjDVShJCez7t_-41">
          <mxGeometry relative="1" as="geometry" />
        </mxCell>
        <mxCell id="RGoFzVvdjDVShJCez7t_-43" value="Realizar pago" style="points=[[0.25,0,0],[0.5,0,0],[0.75,0,0],[1,0.25,0],[1,0.5,0],[1,0.75,0],[0.75,1,0],[0.5,1,0],[0.25,1,0],[0,0.75,0],[0,0.5,0],[0,0.25,0]];shape=mxgraph.bpmn.task;whiteSpace=wrap;rectStyle=rounded;size=10;html=1;container=1;expand=0;collapsible=0;taskMarker=abstract;" vertex="1" parent="RGoFzVvdjDVShJCez7t_-19">
          <mxGeometry x="880" y="35" width="110" height="60" as="geometry" />
        </mxCell>
        <mxCell id="RGoFzVvdjDVShJCez7t_-44" style="edgeStyle=orthogonalEdgeStyle;rounded=0;orthogonalLoop=1;jettySize=auto;html=1;entryX=0;entryY=0.5;entryDx=0;entryDy=0;entryPerimeter=0;" edge="1" parent="RGoFzVvdjDVShJCez7t_-19" source="RGoFzVvdjDVShJCez7t_-41" target="RGoFzVvdjDVShJCez7t_-43">
          <mxGeometry relative="1" as="geometry" />
        </mxCell>
        <mxCell id="RGoFzVvdjDVShJCez7t_-46" value="" style="edgeStyle=elbowEdgeStyle;fontSize=12;html=1;endFill=0;startFill=0;endSize=6;startSize=6;dashed=1;dashPattern=1 4;endArrow=block;startArrow=oval;rounded=0;exitX=0.5;exitY=1;exitDx=0;exitDy=0;exitPerimeter=0;" edge="1" parent="RGoFzVvdjDVShJCez7t_-19">
          <mxGeometry width="160" relative="1" as="geometry">
            <mxPoint x="930" y="95" as="sourcePoint" />
            <mxPoint x="930" y="260" as="targetPoint" />
          </mxGeometry>
        </mxCell>
        <mxCell id="RGoFzVvdjDVShJCez7t_-49" value="Recibir confirmacion" style="points=[[0.25,0,0],[0.5,0,0],[0.75,0,0],[1,0.25,0],[1,0.5,0],[1,0.75,0],[0.75,1,0],[0.5,1,0],[0.25,1,0],[0,0.75,0],[0,0.5,0],[0,0.25,0]];shape=mxgraph.bpmn.task;whiteSpace=wrap;rectStyle=rounded;size=10;html=1;container=1;expand=0;collapsible=0;taskMarker=abstract;" vertex="1" parent="RGoFzVvdjDVShJCez7t_-19">
          <mxGeometry x="1020" y="34" width="110" height="60" as="geometry" />
        </mxCell>
        <mxCell id="RGoFzVvdjDVShJCez7t_-51" style="edgeStyle=orthogonalEdgeStyle;rounded=0;orthogonalLoop=1;jettySize=auto;html=1;entryX=0;entryY=0.5;entryDx=0;entryDy=0;entryPerimeter=0;" edge="1" parent="RGoFzVvdjDVShJCez7t_-19" source="RGoFzVvdjDVShJCez7t_-43" target="RGoFzVvdjDVShJCez7t_-49">
          <mxGeometry relative="1" as="geometry" />
        </mxCell>
        <mxCell id="RGoFzVvdjDVShJCez7t_-56" style="edgeStyle=orthogonalEdgeStyle;rounded=0;orthogonalLoop=1;jettySize=auto;html=1;" edge="1" parent="RGoFzVvdjDVShJCez7t_-19" source="RGoFzVvdjDVShJCez7t_-52" target="RGoFzVvdjDVShJCez7t_-55">
          <mxGeometry relative="1" as="geometry" />
        </mxCell>
        <mxCell id="RGoFzVvdjDVShJCez7t_-52" value="Recibir pasaje" style="points=[[0.25,0,0],[0.5,0,0],[0.75,0,0],[1,0.25,0],[1,0.5,0],[1,0.75,0],[0.75,1,0],[0.5,1,0],[0.25,1,0],[0,0.75,0],[0,0.5,0],[0,0.25,0]];shape=mxgraph.bpmn.task;whiteSpace=wrap;rectStyle=rounded;size=10;html=1;container=1;expand=0;collapsible=0;taskMarker=abstract;" vertex="1" parent="RGoFzVvdjDVShJCez7t_-19">
          <mxGeometry x="1160" y="35" width="110" height="60" as="geometry" />
        </mxCell>
        <mxCell id="RGoFzVvdjDVShJCez7t_-55" value="" style="points=[[0.145,0.145,0],[0.5,0,0],[0.855,0.145,0],[1,0.5,0],[0.855,0.855,0],[0.5,1,0],[0.145,0.855,0],[0,0.5,0]];shape=mxgraph.bpmn.event;html=1;verticalLabelPosition=bottom;labelBackgroundColor=#ffffff;verticalAlign=top;align=center;perimeter=ellipsePerimeter;outlineConnect=0;aspect=fixed;outline=end;symbol=terminate2;" vertex="1" parent="RGoFzVvdjDVShJCez7t_-19">
          <mxGeometry x="1330" y="45" width="40" height="40" as="geometry" />
        </mxCell>
        <mxCell id="RGoFzVvdjDVShJCez7t_-20" value="SMTP (Email)" style="swimlane;startSize=20;horizontal=0;html=1;whiteSpace=wrap;" vertex="1" parent="1">
          <mxGeometry x="120" y="650" width="1400" height="120" as="geometry" />
        </mxCell>
        <mxCell id="RGoFzVvdjDVShJCez7t_-48" value="" style="edgeStyle=elbowEdgeStyle;fontSize=12;html=1;endFill=0;startFill=0;endSize=6;startSize=6;dashed=1;dashPattern=1 4;endArrow=block;startArrow=oval;rounded=0;entryX=0.091;entryY=0.933;entryDx=0;entryDy=0;entryPerimeter=0;" edge="1" parent="RGoFzVvdjDVShJCez7t_-20" target="RGoFzVvdjDVShJCez7t_-49">
          <mxGeometry width="160" relative="1" as="geometry">
            <mxPoint x="1030.14" y="130" as="sourcePoint" />
            <mxPoint x="1030" y="-30" as="targetPoint" />
          </mxGeometry>
        </mxCell>
        <mxCell id="RGoFzVvdjDVShJCez7t_-54" value="" style="edgeStyle=elbowEdgeStyle;fontSize=12;html=1;endFill=0;startFill=0;endSize=6;startSize=6;dashed=1;dashPattern=1 4;endArrow=block;startArrow=oval;rounded=0;entryX=0.091;entryY=0.933;entryDx=0;entryDy=0;entryPerimeter=0;" edge="1" parent="RGoFzVvdjDVShJCez7t_-20">
          <mxGeometry width="160" relative="1" as="geometry">
            <mxPoint x="1200" as="sourcePoint" />
            <mxPoint x="1200.1399999999999" y="-36" as="targetPoint" />
          </mxGeometry>
        </mxCell>
        <mxCell id="RGoFzVvdjDVShJCez7t_-47" value="" style="edgeStyle=elbowEdgeStyle;fontSize=12;html=1;endFill=0;startFill=0;endSize=6;startSize=6;dashed=1;dashPattern=1 4;endArrow=block;startArrow=oval;rounded=0;" edge="1" parent="RGoFzVvdjDVShJCez7t_-20">
          <mxGeometry width="160" relative="1" as="geometry">
            <mxPoint x="1060.14" y="130" as="sourcePoint" />
            <mxPoint x="1060.14" y="100" as="targetPoint" />
          </mxGeometry>
        </mxCell>
        <mxCell id="RGoFzVvdjDVShJCez7t_-21" value="Payment" style="swimlane;startSize=20;horizontal=0;html=1;whiteSpace=wrap;" vertex="1" parent="1">
          <mxGeometry x="119" y="780" width="1401" height="120" as="geometry" />
        </mxCell>
        <mxCell id="RGoFzVvdjDVShJCez7t_-22" value="App" style="swimlane;startSize=20;horizontal=0;html=1;whiteSpace=wrap;" vertex="1" parent="1">
          <mxGeometry x="120" y="390" width="1400" height="120" as="geometry" />
        </mxCell>
        <mxCell id="RGoFzVvdjDVShJCez7t_-27" value="Recibir solicitud" style="points=[[0.25,0,0],[0.5,0,0],[0.75,0,0],[1,0.25,0],[1,0.5,0],[1,0.75,0],[0.75,1,0],[0.5,1,0],[0.25,1,0],[0,0.75,0],[0,0.5,0],[0,0.25,0]];shape=mxgraph.bpmn.task;whiteSpace=wrap;rectStyle=rounded;size=10;html=1;container=1;expand=0;collapsible=0;taskMarker=abstract;" vertex="1" parent="RGoFzVvdjDVShJCez7t_-22">
          <mxGeometry x="130" y="20" width="110" height="60" as="geometry" />
        </mxCell>
        <mxCell id="RGoFzVvdjDVShJCez7t_-29" value="Enviar resultado" style="points=[[0.25,0,0],[0.5,0,0],[0.75,0,0],[1,0.25,0],[1,0.5,0],[1,0.75,0],[0.75,1,0],[0.5,1,0],[0.25,1,0],[0,0.75,0],[0,0.5,0],[0,0.25,0]];shape=mxgraph.bpmn.task;whiteSpace=wrap;rectStyle=rounded;size=10;html=1;container=1;expand=0;collapsible=0;taskMarker=abstract;" vertex="1" parent="RGoFzVvdjDVShJCez7t_-22">
          <mxGeometry x="280" y="20" width="110" height="60" as="geometry" />
        </mxCell>
        <mxCell id="RGoFzVvdjDVShJCez7t_-30" style="edgeStyle=orthogonalEdgeStyle;rounded=0;orthogonalLoop=1;jettySize=auto;html=1;entryX=0;entryY=0.5;entryDx=0;entryDy=0;entryPerimeter=0;" edge="1" parent="RGoFzVvdjDVShJCez7t_-22" source="RGoFzVvdjDVShJCez7t_-27" target="RGoFzVvdjDVShJCez7t_-29">
          <mxGeometry relative="1" as="geometry" />
        </mxCell>
        <mxCell id="RGoFzVvdjDVShJCez7t_-28" value="" style="edgeStyle=elbowEdgeStyle;fontSize=12;html=1;endFill=0;startFill=0;endSize=6;startSize=6;dashed=1;dashPattern=1 4;endArrow=block;startArrow=oval;rounded=0;exitX=0.5;exitY=0;exitDx=0;exitDy=0;exitPerimeter=0;entryX=0.5;entryY=1;entryDx=0;entryDy=0;entryPerimeter=0;" edge="1" parent="1" source="RGoFzVvdjDVShJCez7t_-25" target="RGoFzVvdjDVShJCez7t_-27">
          <mxGeometry width="160" relative="1" as="geometry">
            <mxPoint x="250" y="500" as="sourcePoint" />
            <mxPoint x="410" y="500" as="targetPoint" />
          </mxGeometry>
        </mxCell>
        <mxCell id="RGoFzVvdjDVShJCez7t_-32" value="" style="edgeStyle=elbowEdgeStyle;fontSize=12;html=1;endFill=0;startFill=0;endSize=6;startSize=6;dashed=1;dashPattern=1 4;endArrow=block;startArrow=oval;rounded=0;exitX=0.5;exitY=1;exitDx=0;exitDy=0;exitPerimeter=0;entryX=0.5;entryY=0;entryDx=0;entryDy=0;entryPerimeter=0;" edge="1" parent="1" source="RGoFzVvdjDVShJCez7t_-29" target="RGoFzVvdjDVShJCez7t_-31">
          <mxGeometry width="160" relative="1" as="geometry">
            <mxPoint x="315" y="560" as="sourcePoint" />
            <mxPoint x="315" y="480" as="targetPoint" />
          </mxGeometry>
        </mxCell>
      </root>
    </mxGraphModel>
  </diagram>
</mxfile>
